<svg id="Layer_1" data-name="Layer 1" xmlns="http://www.w3.org/2000/svg" viewBox="0 0 617.65 133.08"><defs><style>.cls-1{fill:#fff;}</style></defs><path class="cls-1" d="M59.28,79.8c0,5.58-2.69,11-9.41,14,8.48,2.59,11.58,11.59,11.58,16.14,0,16.14-12.1,21.31-27.1,21.31H0V58.79H34.35C48.62,58.79,59.28,65.21,59.28,79.8ZM13.45,87.87h20.9c8.58,0,11.38-3.63,11.38-7.76,0-3.31-2.69-8.9-11.38-8.9H13.45Zm0,30.62h20.9c5.58,0,13.55-1.86,13.55-8.69,0-6.52-8-9.93-13.55-9.93H13.45Z"/><path class="cls-1" d="M124.05,131.21H69.84V58.79h54.21V72H83.39V88.69H122.6v12.73H83.39v16.34h40.66Z"/><path class="cls-1" d="M180.43,76.28c-2.48-4.14-9.31-8.07-17.17-8.07-10.14,0-15,4.24-15,9.62,0,6.31,7.45,8.07,16.14,9.1,15.1,1.87,29.17,5.8,29.17,23.07,0,16.14-14.28,23.08-30.42,23.08-14.79,0-26.17-4.56-31.55-17.8l11.38-5.9c3.21,8,11.59,11.49,20.38,11.49,8.59,0,16.66-3,16.66-10.87,0-6.82-7.14-9.62-16.76-10.65-14.8-1.76-28.45-5.69-28.45-21.93,0-14.9,14.69-21,28-21.11,11.28,0,23,3.21,28.45,14.38Z"/><path class="cls-1" d="M221.82,71.21h-23V58.79h59.59V71.21h-23v60H221.82Z"/><path class="cls-1" d="M326.41,100.28c0,18.72-11.9,32.38-31.86,32.38-18.52,0-31.76-11.07-31.76-31.55h13.45c0,12.41,6,18.72,18.31,18.72s18.2-8.58,18.2-19.55V71.52H290.93V58.79h35.48Z"/><path class="cls-1" d="M409.39,95.42c-.21,18.72-11.69,37.45-37.14,37.45S335,114.56,335,95.52s12.21-38.17,37.25-38.17S409.59,76.49,409.39,95.42Zm-60.94.31c.31,11.9,6.73,24.62,23.8,24.62s23.48-12.83,23.69-24.72c.2-12.21-6.62-25.87-23.69-25.87S348.14,83.52,348.45,95.73Z"/><path class="cls-1" d="M477.25,79.8c0,5.58-2.68,11-9.41,14,8.48,2.59,11.59,11.59,11.59,16.14,0,16.14-12.11,21.31-27.11,21.31H418V58.79h34.34C466.6,58.79,477.25,65.21,477.25,79.8Zm-45.83,8.07h20.9c8.59,0,11.38-3.63,11.38-7.76,0-3.31-2.69-8.9-11.38-8.9h-20.9Zm0,30.62h20.9c5.59,0,13.56-1.86,13.56-8.69,0-6.52-8-9.93-13.56-9.93h-20.9Z"/><path class="cls-1" d="M546.16,59.21,514,93.87l34.87,36.51v.83H532L501.67,99.14v32.07H488V58.79h13.65V89.42l27.52-30.63h17Z"/><path class="cls-1" d="M604.1,131.32V102H568.51v29.28H554.85V58.9h13.66V89.42H604.1V58.9h13.55v72.42Z"/><path class="cls-1" d="M494.68,35.08c0,5.13-7.76,5.13-7.76,0S494.68,30,494.68,35.08Z"/><path class="cls-1" d="M532.08,33.74a19.9,19.9,0,0,1-14.33,5.6c-14,0-19.94-9.64-20-19.45S504.11,0,517.75,0A19.45,19.45,0,0,1,531.6,5.77l-4.75,4.58a12.92,12.92,0,0,0-9.1-3.56c-9.11,0-13.05,6.79-13,13.1s3.66,12.77,13,12.77a13.89,13.89,0,0,0,9.48-3.83Z"/><path class="cls-1" d="M572.61,19.83c-.11,9.76-6.09,19.51-19.35,19.51s-19.4-9.54-19.4-19.45S540.22,0,553.26,0,572.72,10,572.61,19.83ZM540.86,20c.17,6.19,3.51,12.82,12.4,12.82s12.23-6.68,12.34-12.88c.11-6.36-3.45-13.47-12.34-13.47S540.7,13.64,540.86,20Z"/><path class="cls-1" d="M610.17,11.16,597.88,27.54h-1.4l-12-16.44V38.53h-7.11V.81h8.19L597.34,17,609.14.81h8.14V38.53h-7.11Z"/></svg>